<svg width="16" height="16" viewBox="0 0 16 16" fill="none" xmlns="http://www.w3.org/2000/svg">
<g clip-path="url(#clip0_329_616)">
<path d="M13.6655 2.32143C12.1571 0.821429 10.1639 0 8.02694 0C3.64534 0 0.0718294 3.55357 0.0718294 7.92857C0.0718294 9.32143 0.430976 10.6786 1.13131 11.8929L0 16L4.21998 14.9107C5.38721 15.5536 6.69809 15.875 8.02694 15.875C12.4085 15.875 16 12.3214 16 7.94643C16 5.80357 15.174 3.82143 13.6655 2.32143ZM12.3906 11.125C12.211 11.6429 11.3131 12.1071 10.8822 12.1786C10.5051 12.2321 10.0202 12.25 9.48148 12.0893C9.15825 11.9821 8.74523 11.8571 8.20651 11.625C5.96184 10.6607 4.48934 8.41071 4.38159 8.26786C4.27385 8.10714 3.46577 7.05357 3.46577 5.96429C3.46577 4.875 4.05836 4.32143 4.25589 4.10714C4.45342 3.875 4.70483 3.82143 4.84848 3.82143C4.99214 3.82143 5.15376 3.82143 5.27946 3.82143C5.42312 3.82143 5.60269 3.76786 5.78227 4.19643C5.96184 4.64286 6.41077 5.73214 6.46465 5.83929C6.51852 5.94643 6.55443 6.08929 6.4826 6.23214C6.41077 6.39286 6.37486 6.48214 6.26712 6.60714C6.14141 6.73214 6.03367 6.89286 5.92593 7C5.81818 7.10714 5.71044 7.23214 5.83614 7.44643C5.96184 7.66071 6.41078 8.39286 7.0752 8.98214C7.91919 9.75 8.65544 9.98214 8.87093 10.0893C9.08642 10.1964 9.23008 10.1786 9.35578 10.0357C9.48148 9.875 9.91246 9.375 10.0561 9.16071C10.1998 8.94643 10.3614 8.98214 10.5589 9.05357C10.7565 9.125 11.8698 9.66072 12.0853 9.76786C12.3187 9.875 12.4624 9.92857 12.5163 10.0714C12.5701 10.1607 12.5701 10.6071 12.3906 11.125Z" fill="white"/>
</g>
<defs>
<clipPath id="clip0_329_616">
<rect width="16" height="16" fill="white"/>
</clipPath>
</defs>
</svg>
