<svg width="221" height="38" fill="none" xmlns="http://www.w3.org/2000/svg"><path fill-rule="evenodd" clip-rule="evenodd" d="M16.84 2.284c9.295 0 16.84 7.546 16.84 16.84 0 9.295-7.545 16.84-16.84 16.84C7.546 35.964 0 28.42 0 19.124 0 9.83 7.546 2.284 16.84 2.284z" fill="#575A5F"/><path fill-rule="evenodd" clip-rule="evenodd" d="M55.367 2.284c9.295 0 16.84 7.546 16.84 16.84 0 9.295-7.545 16.84-16.84 16.84-9.294 0-16.84-7.545-16.84-16.84 0-9.294 7.546-16.84 16.84-16.84z" fill="#9B9B9B"/><path fill-rule="evenodd" clip-rule="evenodd" d="M93.914 2.284c9.295 0 16.84 7.546 16.84 16.84 0 9.295-7.545 16.84-16.84 16.84-9.294 0-16.84-7.545-16.84-16.84 0-9.294 7.546-16.84 16.84-16.84z" fill="#F3F0E2"/><path fill-rule="evenodd" clip-rule="evenodd" d="M122.715 16.623V.59h6.904c3.922 0 5.884 1.575 5.884 4.725 0 3.15-2.18 4.772-6.54 4.772h-1.607v6.536h-4.641zm4.641-8.028h1.045c1.689 0 2.536-1.124 2.536-3.363 0-2.105-.847-3.154-2.536-3.154h-1.045v6.517zM147.433.59V2.2h-5.745v4.856h4.831v1.61h-4.831v6.347h6.73v1.61h-11.372V.59h10.387zm2.441 16.033V.59h6.885c1.793 0 3.225.376 4.293 1.136 1.073.756 1.611 1.773 1.611 3.047 0 1.942-1.152 3.213-3.455 3.798 1.183.44 1.947.922 2.295 1.444.349.527.586 1.544.709 3.051.15 1.8.447 2.987.902 3.565h-5.045c-.321-.74-.483-1.67-.483-2.781l-.024-.95-.023-1.195c0-1.848-.744-2.77-2.232-2.77h-.795v7.692h-4.642l.004-.004zm4.642-9.013h.937c1.761 0 2.644-.922 2.644-2.766 0-1.844-.883-2.766-2.644-2.766h-.937V7.61zM175.495.59V2.2h-5.817v5.362h4.954v1.61h-4.954v7.451h-4.637V.59h10.457-.003zm13.619 0v10.767c0 3.692-2.038 5.531-6.117 5.531-4.08 0-6.094-1.843-6.094-5.531V.59h4.641v10.905c0 1.409.202 2.37.606 2.889.403.518 1.151.771 2.239.771 2.113 0 3.166-1.266 3.166-3.802V.586h1.563l-.004.004zm17.406 0v16.033h-4.495V5.477l-3.122 11.146h-2.592l-3.205-10.956v10.956h-1.563V.59h4.721l2.742 9.687L201.744.59h4.776zm13.132 0V2.2h-5.745v4.856h4.831v1.61h-4.831v6.347h6.731v1.61h-11.372V.59h10.386z" fill="#575A5F"/><path fill-rule="evenodd" clip-rule="evenodd" d="M129.984 21.289l4.459 16.033h-4.673l-.949-3.486h-4.824l-1.021 3.486h-1.82l4.744-16.033h4.084zm-5.528 10.936h3.933l-1.891-7.083-2.042 7.083zm22.795-10.936l-4.653 16.033h-4.166l-4.246-16.033h4.697l3.169 12.15 3.462-12.15h1.741-.004zm11.59 0v1.61h-5.745v4.855h4.831v1.61h-4.831v6.347h6.73v1.61h-11.372V21.29h10.387zm14.153 0v16.033h-3.557l-6.683-10.138v10.138h-1.563V21.289h2.944l7.296 10.964V21.289h1.563zm14.727 0v10.766c0 3.688-2.037 5.532-6.117 5.532-4.079 0-6.093-1.844-6.093-5.532V21.29h4.641v10.905c0 1.408.202 2.37.605 2.888.404.518 1.152.772 2.24.772 2.113 0 3.165-1.267 3.165-3.803V21.285h1.563l-.004.004zm12.884 0v1.61h-5.746v4.855h4.832v1.61h-4.832v6.347h6.731v1.61h-11.372V21.29h10.387z" fill="#9B9B9B"/></svg>