<svg width="198" height="68" fill="none" xmlns="http://www.w3.org/2000/svg"><g clip-path="url(#clip0_179_162)"><path fill-rule="evenodd" clip-rule="evenodd" d="M17 38.242v2.652h-4.841L16.077 30.6c.372-.972.194-1.301 1.069-1.301.534 0 .906 1.68 1.311 2.717a63.36 63.36 0 011.117 2.916c.356 1.02.729 1.927 1.117 2.931.21.528.389 1.038.583 1.516.195.477.357 1.087.567 1.515h-3.74c0-2.19.308-3.08-.68-3.08-.324 0-.421.099-.421.428zm-2.348-14.807c0-3.739 5.392-3.557 5.392-.28 0 4.25-5.392 3.525-5.392.28zm.826-5.583c-1.716.148-3.999 2.734-3.999 5.171 0 1.269.032 1.878.55 2.932.211.428.276.577.567.956.842 1.12 1.053.296-.486 4.15l-2.46 6.457c-.357 1.004-.956 2.273-1.215 3.376H6.217v-1.12c0-1.021-2.347-1.021-2.347 0v3.492c0 .89 2.347 1.103 2.347-.28v-.972h1.668L1.65 58.484c.276.132.81.346 1.118.412C2.509 60.033 0 64.842 0 66.028c0 .478.097.527.146.972.453-.313 1.068-.873 1.327-1.45l2.542-6.094c.502.132.373.231.955.28l6.606-17.343c.162-.28.033-.379.454-.379 6.022 0 4.84-.23 4.84.824v2.24c0 .428-.129.082.308.51l.243.198c.308-.165.405-.247.68-.428v-3.344c.42.165.793.066 1.1.066.713.016 2.575.165 3.06-.066.309.659.568 1.466.843 2.207l5.925 15.515c.583-.049.454-.148.972-.28l2.493 5.996c.26.626.826 1.186 1.377 1.548.161-2.059.453-.708-1.215-4.645-.243-.593-.42-1.07-.68-1.68-.226-.51-.631-1.284-.745-1.779.308-.066.858-.28 1.118-.411L26.94 44.27a44.412 44.412 0 00-.405-1.004c-.13-.346-.259-.79-.405-1.12h3.174c0 .939-.21 1.812 1.376 1.812 1.392 0 .971-1.367.971-4.184 0-.626-1.068-.922-1.635-.692-.826.33-.712.824-.712 1.944-.405-.23-3.19-.132-3.74-.132l-4.696-12.567c.502-.741 1.15-1.054 1.652-1.96 1.279-2.224 1.02-4.48-.486-6.49-.583-.79-1.732-1.91-2.687-2.157v-4.2c.016-.857.13-1.268-.308-1.779-.793-.972-2.315-1.005-3.092.017-.454.576-.34.971-.324 1.91 0 1.581-.146 2.718-.146 4.184z" fill="#fff"/></g><path d="M45.308 19.473V14.14h23.46v5.332h-8.285V44h-6.89V19.473h-8.285zM71.476 44V14.14h12.058c3.213 0 5.674.896 7.383 2.687 1.723 1.791 2.584 4.225 2.584 7.3 0 3.063-.848 5.497-2.543 7.302-1.695 1.804-4.197 2.707-7.506 2.707h-5.147V44h-6.83zm6.829-14.684h3.937c1.654 0 2.803-.471 3.445-1.415.657-.957.985-2.187.985-3.691 0-1.477-.328-2.687-.984-3.63-.643-.943-1.791-1.415-3.446-1.415h-3.937v10.151zM120.428 44h-6.788l-.021-16.734c0-.588.007-1.156.021-1.702.027-.547.048-1.06.061-1.539h-.143a40.12 40.12 0 01-.513 1.374c-.178.452-.41.971-.697 1.559L104.165 44h-7.506V14.14h6.768v16.715c0 .601-.007 1.182-.021 1.743-.013.56-.027 1.073-.041 1.538h.164c.151-.492.315-.964.492-1.415.192-.451.431-.985.718-1.6l8.162-16.98h7.527V44zm2.686-24.527V14.14h23.461v5.332h-8.285V44h-6.891V19.473h-8.285zm45.938 6.829v4.963h-12.448v-4.963h12.448zm-3.876 5.147v-4.82c0-2.843-.458-4.894-1.374-6.152-.916-1.257-2.242-1.886-3.979-1.886-1.722 0-3.008.43-3.855 1.292-.834.861-1.251 2.064-1.251 3.61v1.537h-6.624v-1.353c0-3.158 1.025-5.62 3.076-7.383 2.051-1.764 4.949-2.646 8.695-2.646 3.842 0 6.877 1.176 9.106 3.528 2.228 2.351 3.342 5.995 3.342 10.93v1.703c0 5.126-1.182 8.859-3.547 11.197-2.352 2.324-5.408 3.486-9.167 3.486-3.651 0-6.494-.902-8.532-2.707-2.023-1.818-3.035-4.224-3.035-7.219v-1.435h6.645v1.271c0 1.655.396 2.94 1.189 3.856.793.902 2.01 1.353 3.651 1.353 1.873 0 3.281-.676 4.224-2.03.957-1.354 1.436-3.397 1.436-6.132zm9.003-11.976V14.14h23.461v5.332h-8.286V44h-6.89V19.473h-8.285z" fill="#fff"/><path d="M51.186 61.086l1.32.184c-.27 1.926-1.216 2.889-2.837 2.889-1.054 0-1.839-.404-2.355-1.213-.516-.808-.774-1.89-.774-3.243 0-1.46.273-2.58.818-3.358.546-.779 1.333-1.168 2.362-1.168 1.59 0 2.524.986 2.799 2.958l-1.333.197c-.144-1.312-.63-1.968-1.46-1.968-1.109 0-1.663 1.14-1.663 3.421 0 2.125.554 3.187 1.663 3.187.444 0 .775-.161.99-.483.22-.326.377-.793.47-1.403zm1.72-5.75h5.288v1.218h-1.936V64h-1.435v-7.446h-1.917v-1.219zm8.163 6.157l-2.52-6.158h1.467l1.656 4.412 1.435-4.412h1.295l-2.21 6.551c-.274.817-.56 1.373-.856 1.67-.296.296-.736.444-1.32.444h-.59v-1.238h.59c.118 0 .264-.04.438-.12.177-.08.347-.358.507-.832l.108-.317zm3.32 1.3l1.885-7.458h2.108l1.707 7.459h.49v3.053h-.997L69.416 64h-4.368l-.158 1.847h-.997v-3.053h.495zm1.289 0h2.92l-1.22-5.991h-.348l-1.352 5.992zm7.287.439V64h-1.428v-8.665h1.428v4.863c0 .059-.015.459-.045 1.2a9.96 9.96 0 01.75-1.613l2.037-3.605v-.845h1.428V64h-1.428v-4.494c0-.042.015-.54.044-1.492a11.529 11.529 0 01-.761 1.619l-2.025 3.599zm11.032-7.897V64h-1.434v-3.618h-1.346L79.865 64H78.31l1.644-3.916c-.885-.445-1.327-1.2-1.327-2.267 0-.8.224-1.413.673-1.84.448-.428 1.145-.642 2.088-.642h2.61zm-1.434 1.111h-1.111c-.944 0-1.416.453-1.416 1.359 0 .436.114.789.343 1.06.233.27.594.406 1.085.406h1.099v-2.825zm6.392 1.117l-1.206-.279c.397-1.405 1.288-2.107 2.672-2.107.791 0 1.411.21 1.86.628.453.415.679.982.679 1.701 0 .914-.45 1.56-1.352 1.936 1.062.288 1.593.997 1.593 2.127 0 .804-.262 1.436-.787 1.898-.525.461-1.2.692-2.025.692-.74 0-1.37-.182-1.891-.546-.517-.368-.845-.96-.984-1.778l1.231-.291c.212.986.73 1.479 1.555 1.479.377 0 .703-.123.978-.369.275-.25.412-.643.412-1.18 0-.423-.124-.768-.374-1.035-.25-.27-.709-.406-1.377-.406h-.546v-1.06h.546c.372 0 .655-.032.85-.096.199-.063.37-.2.514-.412.144-.216.216-.493.216-.832 0-.414-.106-.745-.317-.99-.212-.245-.506-.368-.883-.368-.698 0-1.153.43-1.364 1.288zm5.782-2.228h1.949c.944 0 1.697.168 2.26.502.567.334.994.831 1.282 1.492.292.66.438 1.392.438 2.196 0 .846-.131 1.602-.394 2.266a3.601 3.601 0 01-1.193 1.6c-.533.406-1.295.609-2.285.609h-2.057v-8.665zm1.435 1.15v6.366h.597c.833 0 1.438-.288 1.815-.863.377-.58.565-1.352.565-2.317 0-2.124-.793-3.187-2.38-3.187h-.597zm5.548 3.732h2.742v1.06h-2.742v-1.06zm3.891 2.577l1.885-7.459h2.108l1.707 7.459h.489v3.053h-.997L110.638 64h-4.367l-.159 1.847h-.996v-3.053h.495zm1.288 0h2.92l-1.218-5.992h-.35l-1.352 5.992zm7.288.438V64h-1.429v-8.665h1.429v4.863c0 .059-.015.459-.045 1.2.174-.5.423-1.037.749-1.613l2.038-3.605v-.845h1.428V64h-1.428v-4.494c0-.042.015-.54.044-1.492a11.52 11.52 0 01-.762 1.619l-2.024 3.599zm5.313-1.67l1.294-.247c.182 1.109.718 1.663 1.606 1.663.432 0 .758-.144.978-.432.224-.292.336-.647.336-1.066 0-.487-.112-.85-.336-1.092a1.07 1.07 0 00-.825-.362h-.692v-1.028h.692c.237 0 .469-.108.698-.324.233-.22.349-.556.349-1.009 0-.402-.116-.72-.349-.952-.233-.237-.537-.356-.914-.356-.775 0-1.242.477-1.403 1.429l-1.238-.197c.246-1.608 1.145-2.412 2.698-2.412.842 0 1.488.22 1.936.66.453.436.679.975.679 1.619 0 .926-.461 1.574-1.384 1.942 1.063.309 1.594.99 1.594 2.044 0 .77-.239 1.415-.718 1.936-.473.52-1.174.78-2.101.78-1.697 0-2.664-.865-2.9-2.596zm8.696-6.227h1.606L132.125 64h-1.454l-.546-2.17h-2.532L127.06 64h-1.372l2.508-8.665zm1.644 5.364l-.984-3.967-.978 3.967h1.962zm4.583 2.533V64h-1.428v-8.665h1.428v4.863c0 .059-.015.459-.045 1.2.174-.5.424-1.037.749-1.613l2.038-3.605v-.845h1.428V64h-1.428v-4.494c0-.042.015-.54.044-1.492a11.394 11.394 0 01-.761 1.619l-2.025 3.599zm-.533-10.264h.888c.132.474.485.71 1.06.71.567 0 .917-.236 1.048-.71h.895c-.216 1.032-.864 1.549-1.943 1.549-1.083 0-1.733-.517-1.948-1.55zm6.366 2.367h1.435v3.593h2.552v-3.593h1.434V64h-1.434v-3.86h-2.552V64h-1.435v-8.665zm8.709 0h1.606L152.895 64h-1.454l-.546-2.17h-2.533l-.533 2.17h-1.371l2.507-8.665zm1.644 5.364l-.984-3.967-.977 3.967h1.961z" fill="#F5F5F5"/><defs><clipPath id="clip0_179_162"><path fill="#fff" transform="translate(0 11)" d="M0 0h34v56H0z"/></clipPath></defs></svg>