<svg width="221" height="38" fill="none" xmlns="http://www.w3.org/2000/svg"><path fill-rule="evenodd" clip-rule="evenodd" d="M16.84 2.198c9.295 0 16.84 7.545 16.84 16.84 0 9.294-7.545 16.84-16.84 16.84C7.546 35.878 0 28.332 0 19.038c0-9.295 7.546-16.84 16.84-16.84z" fill="#575A5F"/><path fill-rule="evenodd" clip-rule="evenodd" d="M55.367 2.198c9.295 0 16.84 7.545 16.84 16.84 0 9.294-7.545 16.84-16.84 16.84-9.294 0-16.84-7.546-16.84-16.84 0-9.295 7.546-16.84 16.84-16.84z" fill="#9B9B9B"/><path fill-rule="evenodd" clip-rule="evenodd" d="M93.914 2.198c9.295 0 16.84 7.545 16.84 16.84 0 9.294-7.545 16.84-16.84 16.84-9.294 0-16.84-7.546-16.84-16.84 0-9.295 7.546-16.84 16.84-16.84z" fill="#F3F0E2"/><path fill-rule="evenodd" clip-rule="evenodd" d="M122.715 16.537V.504h6.904c3.922 0 5.884 1.575 5.884 4.724 0 3.15-2.18 4.772-6.54 4.772h-1.607v6.537h-4.641zm4.641-8.028h1.045c1.689 0 2.536-1.124 2.536-3.364 0-2.105-.847-3.153-2.536-3.153h-1.045v6.517zM147.433.504v1.61h-5.745V6.97h4.831v1.61h-4.831v6.348h6.73v1.61h-11.372V.504h10.387zm2.441 16.033V.504h6.885c1.793 0 3.225.376 4.293 1.136 1.073.755 1.611 1.772 1.611 3.046 0 1.943-1.152 3.213-3.455 3.799 1.183.439 1.947.922 2.295 1.444.349.526.586 1.543.709 3.05.15 1.801.447 2.988.902 3.566h-5.045c-.321-.74-.483-1.67-.483-2.782l-.024-.95-.023-1.194c0-1.848-.744-2.77-2.232-2.77h-.795v7.692h-4.642l.004-.004zm4.642-9.014h.937c1.761 0 2.644-.922 2.644-2.765 0-1.844-.883-2.766-2.644-2.766h-.937v5.531zM175.495.504v1.61h-5.817v5.362h4.954v1.61h-4.954v7.45h-4.637V.505h10.457-.003zm13.619 0V11.27c0 3.692-2.038 5.532-6.117 5.532-4.08 0-6.094-1.844-6.094-5.532V.504h4.641v10.905c0 1.409.202 2.37.606 2.888.403.519 1.151.772 2.239.772 2.113 0 3.166-1.266 3.166-3.803V.5h1.563l-.004.004zm17.406 0v16.033h-4.495V5.39l-3.122 11.146h-2.592L193.106 5.58v10.956h-1.563V.504h4.721l2.742 9.686 2.738-9.686h4.776zm13.132 0v1.61h-5.745V6.97h4.831v1.61h-4.831v6.348h6.731v1.61h-11.372V.504h10.386z" fill="#575A5F"/><path fill-rule="evenodd" clip-rule="evenodd" d="M129.984 21.202l4.459 16.033h-4.673l-.949-3.486h-4.824l-1.021 3.486h-1.82l4.744-16.033h4.084zm-5.528 10.936h3.933l-1.891-7.082-2.042 7.082zm22.795-10.936l-4.653 16.033h-4.166l-4.246-16.033h4.697l3.169 12.151 3.462-12.151h1.741-.004zm11.59 0v1.61h-5.745v4.855h4.831v1.61h-4.831v6.347h6.73v1.61h-11.372V21.203h10.387zm14.153 0v16.033h-3.557l-6.683-10.137v10.137h-1.563V21.202h2.944l7.296 10.964V21.202h1.563zm14.727 0v10.766c0 3.688-2.037 5.532-6.117 5.532-4.079 0-6.093-1.844-6.093-5.532V21.202h4.641v10.905c0 1.409.202 2.37.605 2.888.404.519 1.152.772 2.24.772 2.113 0 3.165-1.266 3.165-3.803V21.198h1.563l-.004.004zm12.884 0v1.61h-5.746v4.855h4.832v1.61h-4.832v6.347h6.731v1.61h-11.372V21.203h10.387z" fill="#9B9B9B"/></svg>