<svg width="55" height="12" fill="none" xmlns="http://www.w3.org/2000/svg"><g clip-path="url(#clip0_208_313)"><path fill-rule="evenodd" clip-rule="evenodd" d="M6.613.033a6.035 6.035 0 00-3.568.73A6.007 6.007 0 00.553 3.411a5.981 5.981 0 001.168 6.822 6.037 6.037 0 006.84 1.185 6.01 6.01 0 002.665-2.475 5.983 5.983 0 00-.98-7.18A6.019 6.019 0 006.613.032zm-.195 9.14a3.22 3.22 0 01-3.303-1.75 3.19 3.19 0 01.603-3.68 3.214 3.214 0 013.69-.613 3.19 3.19 0 01.857 5.13 3.213 3.213 0 01-1.847.913zM15.188.27a1.408 1.408 0 00-1.361 1.072 1.394 1.394 0 00-.009.617c.132.66.75 1.11 1.424 1.11h3.906l-6.08 8.02a.399.399 0 00.319.64h9.537c.672 0 1.29-.45 1.423-1.11a1.395 1.395 0 00-.767-1.55 1.408 1.408 0 00-.603-.138h-4.76L24.292.917A.403.403 0 0023.97.27h-8.78zm38.11.032a1.426 1.426 0 00-1.096 1.405v4.66L44.627.358a.403.403 0 00-.653.316v9.621a1.417 1.417 0 001.095 1.405 1.408 1.408 0 001.567-.763 1.4 1.4 0 00.137-.604v-4.7l7.575 6.008a.404.404 0 00.654-.315V1.669A1.394 1.394 0 0053.92.307a1.407 1.407 0 00-.622-.005zM33.574 2.801c3.204 0 5.598 1.688 5.598 3.197 0 1.51-2.394 3.198-5.598 3.198-3.204 0-5.599-1.688-5.599-3.198s2.394-3.197 5.599-3.197zm0-2.799c-4.638 0-8.398 2.685-8.398 5.996 0 3.312 3.76 5.997 8.398 5.997S41.97 9.31 41.97 5.998c0-3.311-3.76-5.996-8.397-5.996z" fill="#fff"/></g><defs><clipPath id="clip0_208_313"><path fill="#fff" d="M0 0h55v12H0z"/></clipPath></defs></svg>