<svg width="66" height="13" fill="none" xmlns="http://www.w3.org/2000/svg"><path fill-rule="evenodd" clip-rule="evenodd" d="M62.032 8.071c.155.136.232.213.329.29 1.044.889 2.089 1.78 3.114 2.669.057.057.155.136.212.193.388.387.425.948.059 1.334-.348.387-.89.444-1.296.116-.736-.6-1.432-1.218-2.147-1.818-1.024-.871-2.03-1.741-3.057-2.61-.076-.077-.192-.156-.348-.272 0 .212-.02.348-.02.484v3.423c-.039.54-.444.928-.987.89-.521-.02-.87-.408-.889-.949V.757c0-.348.04-.407.368-.407.444-.02.889-.02 1.334-.02 1.064 0 2.166.04 3.23-.019 1.798-.077 3.81 1.373 4.003 3.482a3.828 3.828 0 01-3.057 4.082c-.248.06-.52.137-.848.196zm-3.268-1.489c.116.02.193.02.252.02h2.69c.251 0 .522-.02.772-.116.832-.252 1.49-.754 1.702-1.645.368-1.528-.773-2.921-2.34-2.921h-2.786c-.117 0-.213.02-.329.02.04 1.546.04 3.074.04 4.642zM20.875 7.2h-5.262c0 .155-.02.29-.02.425v4.042c0 .175 0 .348-.039.484-.135.407-.56.657-.968.64a.966.966 0 01-.87-.833c-.019-.116 0-.212 0-.328 0-4.816-.019-5.396-.019-10.194 0-.193.02-.388.077-.561.155-.407.58-.64 1.025-.58a.944.944 0 01.793.832c.02.136 0 .252 0 .387 0 2.477.02.716.02 3.191 0 .155.02.29.02.425.328.077 4.893.077 5.242 0 0-.116.02-.232.02-.368V1.164a.923.923 0 01.888-.87.964.964 0 01.986.833c.02.116 0 .212 0 .328v10.466c-.057.484-.484.87-.968.852-.484-.02-.871-.406-.928-.89V7.628c.003-.118.003-.253.003-.428zM1.779 11.92c-.5-.29-1.536-1.138-1.702-1.72-.117-.35-.137-.737.193-1.046.368-.347.87-.484 1.373-.154.484.348.716.792 1.121 1.2.58.58 1.334.889 2.147.985 1.017.104 2.233.009 3.074-.637.465-.524.6-1.257.04-1.761-.272-.232-.62-.407-.968-.56-.848-.368-1.738-.62-2.629-.852-.953-.227-2.096-.522-2.958-.986C.793 6.021.405 5.441.29 4.707-.33.248 5.22-.373 8.316 1.379c.388.212.754.54 1.084.832.252.212.445.521.541.851.097.408-.096.833-.6.949-.425.096-.812-.04-1.121-.368a1.337 1.337 0 01-.155-.193c-1.07-1.625-4.063-1.843-5.396-.62-.349.465-.484 1.084-.02 1.664.764.724 3.27 1.147 4.351 1.413.658.173 1.297.387 1.897.736.773.407 1.334 1.005 1.528 1.876.232 1.064 0 2.07-.832 2.843-2.052 1.839-5.487 1.971-7.815.559zM32.15.354a6.19 6.19 0 016.189 6.189v.045a.622.622 0 01-.504.605v.01H26.58a.622.622 0 01-.621-.617V6.54a6.192 6.192 0 016.19-6.187zm4.165 4.784a4.397 4.397 0 00-8.331 0h8.331zm.798 5.102a6.182 6.182 0 01-4.964 2.494 6.182 6.182 0 01-4.964-2.493c-.11-.148-.148-.318-.11-.498a.601.601 0 01.298-.413l.478-.277a.62.62 0 01.806.161 4.39 4.39 0 003.492 1.725c1.423 0 2.69-.677 3.493-1.725a.62.62 0 01.805-.16l.479.276c.159.093.26.232.298.413a.6.6 0 01-.11.498zM47.677.354a6.19 6.19 0 016.189 6.188v.045a.622.622 0 01-.504.605v.011H42.108a.622.622 0 01-.622-.618v-.044A6.192 6.192 0 0147.677.354zm4.166 4.783a4.397 4.397 0 00-8.332 0h8.332zm.797 5.103a6.181 6.181 0 01-4.963 2.493 6.181 6.181 0 01-4.964-2.493c-.111-.148-.148-.317-.111-.498a.601.601 0 01.298-.412l.479-.277a.62.62 0 01.805.16 4.39 4.39 0 003.493 1.726 4.391 4.391 0 003.492-1.725.62.62 0 01.806-.161l.478.277c.159.093.26.232.298.412a.6.6 0 01-.11.498z" fill="#667884"/></svg>