<svg viewBox="0 0 46 47" xmlns="http://www.w3.org/2000/svg" xmlns:xlink="http://www.w3.org/1999/xlink"><style>:root&gt;svg{display:none}:root&gt;svg:target{display:block}</style><svg fill="none" viewBox="0 0 29 28" id="sprite--10th" xmlns="http://www.w3.org/2000/svg"><g clip-path="url(#aclip0_144_2104)"><path d="M14.334 28c7.732 0 14-6.268 14-14s-6.268-14-14-14-14 6.268-14 14 6.268 14 14 14z" fill="#fff"/><path d="M28.334 14c0-6.02-3.8-11.151-9.13-13.13v26.26c5.33-1.979 9.13-7.11 9.13-13.13z" fill="#D80027"/><path d="M.334 14c0 6.02 3.8 11.151 9.13 13.13V.87C4.134 2.85.334 7.98.334 14z" fill="#0052B4"/></g><defs><clipPath id="aclip0_144_2104"><path fill="#fff" transform="translate(.334)" d="M0 0h28v28H0z"/></clipPath></defs></svg><svg fill="none" viewBox="0 0 15 16" id="sprite--arrow-ring" xmlns="http://www.w3.org/2000/svg"><path d="M15 5.647V.94l-1.591 1.65A7.572 7.572 0 007.728 0C3.455 0 0 3.577 0 8s3.454 8 7.728 8c2.181 0 4.136-.941 5.545-2.447l-1.272-1.365a5.744 5.744 0 01-4.273 1.93c-3.273 0-5.91-2.73-5.91-6.118 0-3.388 2.637-6.117 5.91-6.117 1.727 0 3.318.8 4.408 2.023l-1.681 1.74H15z" fill="#fff"/></svg><svg fill="none" viewBox="0 0 39 40" id="sprite--bag-marker" xmlns="http://www.w3.org/2000/svg"><g clip-path="url(#cclip0_144_2418)" fill="#D8B075"><path d="M23.09 12.162v1.305a1.143 1.143 0 01-2.285 0v-1.305h-2.61v1.305a1.142 1.142 0 11-2.285 0v-1.305h-1.506l-.97 8.73h12.133l-.97-8.73H23.09zm-2.285-3.59a1.306 1.306 0 00-2.61 0v1.305h2.61V8.572z"/><path d="M19.5.086c-8.727 0-15.828 7.101-15.828 15.829 0 13.31 13.977 22.25 15.24 23.009a1.141 1.141 0 001.176 0c1.263-.758 15.24-9.699 15.24-23.01 0-8.727-7.1-15.828-15.828-15.828zm8.195 22.71c-.217.242-.526.38-.852.38H12.157a1.143 1.143 0 01-1.135-1.268l1.224-11.015a1.143 1.143 0 011.135-1.016h2.53V8.572c0-1.98 1.61-3.59 3.59-3.59 1.979 0 3.59 1.61 3.59 3.59v1.305h2.528c.583 0 1.072.438 1.136 1.016l1.224 11.015a1.14 1.14 0 01-.284.888z"/></g><defs><clipPath id="cclip0_144_2418"><path fill="#fff" transform="translate(0 .086)" d="M0 0h39v39H0z"/></clipPath></defs></svg><svg fill="none" viewBox="0 0 46 47" id="sprite--bags" xmlns="http://www.w3.org/2000/svg"><path d="M17.732 19.212h17.232v-6.697c0-.74-.6-1.34-1.34-1.34h-6.696v5.358a1.34 1.34 0 01-2.678 0v-5.357H10.857v5.357a1.34 1.34 0 01-2.679 0v-5.357H1.482c-.74 0-1.34.6-1.34 1.34v32.231c0 .74.6 1.34 1.34 1.34h12.462a3.99 3.99 0 01-.23-1.34V23.23a4.023 4.023 0 014.018-4.017z" fill="#D8B075"/><path d="M44.518 21.89H17.732c-.74 0-1.34.6-1.34 1.34v21.517c0 .74.6 1.34 1.34 1.34h26.786c.74 0 1.339-.6 1.339-1.34V23.23c0-.74-.6-1.339-1.34-1.339zm-7.143 9.51a6.57 6.57 0 01-6.563 6.562 6.57 6.57 0 01-6.562-6.563v-2.812a1.34 1.34 0 112.678 0v2.812a3.889 3.889 0 003.884 3.884 3.888 3.888 0 003.884-3.884v-2.812a1.34 1.34 0 112.679 0v2.812zM10.856 9.747a6.704 6.704 0 016.697-6.696 6.704 6.704 0 016.696 6.696v1.429h2.679V9.747c0-5.17-4.206-9.375-9.375-9.375-5.17 0-9.375 4.206-9.375 9.375v1.429h2.678V9.747z" fill="#D8B075"/></svg><svg fill="none" viewBox="0 0 42 42" id="sprite--clock" xmlns="http://www.w3.org/2000/svg"><path fill-rule="evenodd" clip-rule="evenodd" d="M21 0c11.59 0 21 9.41 21 21s-9.41 21-21 21S0 32.59 0 21 9.41 0 21 0zm1 39v-2a1 1 0 00-2 0v2a1 1 0 002 0zm12.435-5.979l-1.414-1.414a.999.999 0 10-1.414 1.414l1.414 1.414a1 1 0 001.414-1.414zM8.979 34.435l1.414-1.414a.999.999 0 10-1.414-1.414l-1.414 1.414a1 1 0 001.414 1.414zM20 8.979V21c0 .265.105.52.293.707l8 8a1 1 0 001.414-1.414L22 20.586V8.979a1 1 0 00-2 0zM3 22h2a1 1 0 000-2H3a1 1 0 000 2zm36-2h-2a1 1 0 000 2h2a1 1 0 000-2zM7.565 8.979l1.414 1.414a.999.999 0 101.414-1.414L8.979 7.565a1 1 0 00-1.414 1.414zm25.456-1.414l-1.414 1.414a.999.999 0 101.414 1.414l1.414-1.414a1 1 0 00-1.414-1.414zM20 3v2a1 1 0 002 0V3a1 1 0 00-2 0z" fill="#fff"/></svg><svg fill="none" viewBox="0 0 16 16" id="sprite--fr" xmlns="http://www.w3.org/2000/svg"><g clip-path="url(#fclip0_84_789)"><path d="M8 16A8 8 0 108 0a8 8 0 000 16z" fill="#fff"/><path d="M15.999 8A8.003 8.003 0 0010.78.498v15.005A8.003 8.003 0 0016 8z" fill="#D80027"/><path d="M0 8a8.003 8.003 0 005.217 7.502V.498A8.003 8.003 0 000 8z" fill="#0052B4"/></g><defs><clipPath id="fclip0_84_789"><path fill="#fff" d="M0 0h16v16H0z"/></clipPath></defs></svg><svg fill="none" viewBox="0 0 29 28" id="sprite--galaxy" xmlns="http://www.w3.org/2000/svg"><mask id="ga" style="mask-type:luminance" maskUnits="userSpaceOnUse" x="0" y="0" width="29" height="28"><path d="M28.666 14a14 14 0 11-28 0 14 14 0 0128 0z" fill="#fff"/></mask><g mask="url(#ga)"><path d="M28.67 0v9.333H.674V0H28.67z" fill="#479951"/><path d="M28.67 9.333v9.332H.674V9.333H28.67z" fill="#fff"/><path d="M28.67 18.665v9.332H.674v-9.332H28.67z" fill="#222"/><path d="M10.006 27.997H.674V0h9.332v27.996z" fill="#E74C3C"/></g></svg><svg fill="none" viewBox="0 0 32 32" id="sprite--gray-marker" xmlns="http://www.w3.org/2000/svg"><path d="M16 0a16 16 0 1016 16A16.018 16.018 0 0016 0zm6.742 12.82l-7.933 7.943a1.114 1.114 0 01-1.577 0l-3.974-3.974a1.116 1.116 0 011.577-1.578l3.181 3.18 7.144-7.145a1.117 1.117 0 011.578 1.578l.004-.005z" fill="#667884" fill-opacity=".32"/></svg><svg fill="none" viewBox="0 0 41 42" id="sprite--hand-app" xmlns="http://www.w3.org/2000/svg"><g clip-path="url(#iclip0_144_2425)" fill="#D8B075"><path d="M13.515 3.471h8.184c.935 0 1.693-.758 1.693-1.692V.086h-11.57V1.78c0 .934.758 1.692 1.693 1.692z"/><path d="M20.746 10.46a1.2 1.2 0 011.2-1.202h7.48v-5.54A3.636 3.636 0 0025.794.087V1.78a4.095 4.095 0 01-4.095 4.094h-8.185A4.095 4.095 0 019.42 1.78V.086A3.637 3.637 0 005.787 3.72v14.22H7.48a4.1 4.1 0 014.095 4.094 4.082 4.082 0 01-1.2 2.894 4.082 4.082 0 011.2 2.893 4.097 4.097 0 01-2.1 3.574 4.06 4.06 0 01.653 2.213 4.1 4.1 0 01-4.331 4.087 3.637 3.637 0 003.624 3.392h16.374a3.637 3.637 0 003.632-3.632v-18.56h-.245c-4.652 0-8.435-3.784-8.435-8.435zM20.5 37.701h-5.787a1.201 1.201 0 010-2.403H20.5a1.201 1.201 0 010 2.403z"/><path d="M7.725 33.607c0-.933-.76-1.692-1.693-1.692s-1.692.76-1.692 1.692c0 .934.759 1.693 1.692 1.693.933 0 1.693-.76 1.693-1.693zm-4.34-15.669v-3.384H1.692a1.692 1.692 0 000 3.384h1.693zm4.095 5.787a1.692 1.692 0 100-3.384H3.14a1.692 1.692 0 100 3.384h4.34zm-.002 5.788a1.692 1.692 0 100-3.385H4.585a1.692 1.692 0 100 3.384h2.893zm32.32-10.353H37.06V15.6a3.94 3.94 0 00-3.94-3.94h-9.852a6.043 6.043 0 005.912 4.832h1.447a1.2 1.2 0 011.2 1.201V35.3h1.293a3.94 3.94 0 003.94-3.94h2.738a1.2 1.2 0 001.201-1.201v-9.797a1.2 1.2 0 00-1.2-1.201z"/></g><defs><clipPath id="iclip0_144_2425"><path fill="#fff" transform="translate(0 .086)" d="M0 0h41v41H0z"/></clipPath></defs></svg><svg fill="none" viewBox="0 0 7 11" id="sprite--icon-arrow" xmlns="http://www.w3.org/2000/svg"><path d="M1 1.5l4 4-4 4" stroke="#fff" stroke-width="1.5" stroke-linecap="round"/></svg><svg fill="none" viewBox="0 0 43 44" id="sprite--label" xmlns="http://www.w3.org/2000/svg"><g clip-path="url(#kclip0_144_2437)" fill="#D8B075"><path d="M20.774 16.96c.24-.24.371-.559.371-.898a1.26 1.26 0 00-.371-.897 1.26 1.26 0 00-.898-.372 1.26 1.26 0 00-.897.372 1.26 1.26 0 00-.372.897c0 .339.132.658.372.897.24.24.559.372.897.372.34 0 .658-.132.898-.372zm-1.795 14.297c.24.24.558.372.897.372a1.27 1.27 0 00.897-2.166 1.27 1.27 0 00-1.795 0 1.27 1.27 0 000 1.794z"/><path d="M42.967 4.591A4.493 4.493 0 0038.495.12L25.971.086h-.017a6.334 6.334 0 00-4.45 1.844L1.107 22.328a3.78 3.78 0 000 5.34L15.419 41.98a3.75 3.75 0 002.67 1.105 3.75 3.75 0 002.67-1.105l20.398-20.4A6.334 6.334 0 0043 17.117L42.967 4.59zM37.903 8.97a3.79 3.79 0 01-3.786 3.786A3.79 3.79 0 0130.33 8.97a3.79 3.79 0 013.786-3.787 3.79 3.79 0 013.786 3.787zM10.69 24.47a1.259 1.259 0 010-2.518h18.372a1.259 1.259 0 010 2.517H10.69zm11.863 8.567a3.775 3.775 0 01-2.677 1.107c-.97 0-1.94-.37-2.677-1.107a3.79 3.79 0 010-5.354 3.79 3.79 0 015.354 0 3.79 3.79 0 010 5.354zM16.09 16.062a3.76 3.76 0 011.109-2.678 3.79 3.79 0 015.354 0 3.761 3.761 0 011.109 2.678 3.761 3.761 0 01-1.11 2.677 3.775 3.775 0 01-2.676 1.107c-.97 0-1.94-.369-2.677-1.107a3.76 3.76 0 01-1.11-2.677z"/></g><defs><clipPath id="kclip0_144_2437"><path fill="#fff" transform="translate(0 .086)" d="M0 0h43v43H0z"/></clipPath></defs></svg><svg fill="none" viewBox="0 0 28 28" id="sprite--lazell" xmlns="http://www.w3.org/2000/svg"><g clip-path="url(#lclip0_320_4)"><path d="M14 28c7.732 0 14-6.268 14-14S21.732 0 14 0 0 6.268 0 14s6.268 14 14 14z" fill="#fff"/><path d="M28 14c0 7.732-6.268 14-14 14S0 21.732 0 14" fill="#D80027"/></g><defs><clipPath id="lclip0_320_4"><path fill="#fff" d="M0 0h28v28H0z"/></clipPath></defs></svg><svg fill="none" viewBox="0 0 16 16" id="sprite--oae" xmlns="http://www.w3.org/2000/svg"><mask id="ma" style="mask-type:luminance" maskUnits="userSpaceOnUse" x="0" y="0" width="16" height="16"><path d="M16 8A8 8 0 11-.001 8 8 8 0 0116 8z" fill="#fff"/></mask><g mask="url(#ma)"><path d="M16 0v5.333H.002V0H16z" fill="#479951"/><path d="M16 5.333v5.333H.002V5.333H16z" fill="#fff"/><path d="M16 10.666v5.332H.002v-5.332H16z" fill="#222"/><path d="M5.336 15.998H.003V0h5.333v15.998z" fill="#E74C3C"/></g></svg><svg fill="none" viewBox="0 0 12 13" id="sprite--phone" xmlns="http://www.w3.org/2000/svg"><path d="M10.188 5.412C10.2 3.791 8.82 2.304 7.108 2.1a2.013 2.013 0 01-.11-.017 1.6 1.6 0 00-.26-.028c-.352 0-.445.246-.47.393a.454.454 0 00.068.357c.116.158.32.186.485.208.048.007.093.013.131.022 1.537.343 2.055.883 2.308 2.407.006.038.01.084.012.132.011.183.034.562.442.562.034 0 .07-.003.108-.01.38-.057.368-.403.362-.57a.857.857 0 01.002-.143z" fill="#fff"/><path d="M6.639 1.504c.045.003.088.006.124.012 2.525.388 3.686 1.584 4.008 4.129.005.043.006.096.007.151.003.2.01.613.454.621h.013a.44.44 0 00.33-.124c.138-.145.128-.36.12-.533l-.003-.117c.032-2.602-2.22-4.962-4.82-5.05a.18.18 0 00-.031.002.218.218 0 01-.031.002 1.1 1.1 0 01-.092-.005C6.678.59 6.631.586 6.584.586c-.414 0-.493.295-.503.47-.023.406.37.434.558.448zm4.009 7.429a7.817 7.817 0 01-.161-.125 15.32 15.32 0 00-.853-.624 65.627 65.627 0 01-.176-.124c-.363-.255-.69-.379-.999-.379-.415 0-.778.23-1.077.683-.132.2-.293.298-.491.298a.976.976 0 01-.396-.1c-1.172-.531-2.01-1.346-2.488-2.423-.232-.52-.157-.86.25-1.136.232-.157.663-.45.632-1.01-.034-.635-1.437-2.547-2.028-2.765a1.151 1.151 0 00-.783-.002c-.679.228-1.166.63-1.41 1.16C.435 2.898.445 3.5.7 4.126c.737 1.81 1.774 3.387 3.08 4.689 1.28 1.274 2.852 2.318 4.673 3.102.165.071.337.11.463.138l.106.025c.015.004.03.006.046.006h.014c.857 0 1.886-.783 2.202-1.675.276-.781-.229-1.168-.635-1.478zM7.016 3.57c-.146.004-.451.012-.559.323-.05.145-.044.271.018.375.091.152.265.198.424.224.575.092.87.41.929 1 .027.275.212.467.45.467a.444.444 0 00.054-.003c.286-.034.424-.245.412-.625.005-.397-.203-.848-.557-1.207-.354-.36-.782-.563-1.17-.553z" fill="#fff"/></svg><svg fill="none" viewBox="0 0 16 16" id="sprite--pl" xmlns="http://www.w3.org/2000/svg"><g clip-path="url(#oclip0_84_784)"><path d="M8 16A8 8 0 108 0a8 8 0 000 16z" fill="#fff"/><path d="M16 8A8 8 0 110 8" fill="#D80027"/></g><defs><clipPath id="oclip0_84_784"><path fill="#fff" d="M0 0h16v16H0z"/></clipPath></defs></svg><svg fill="none" viewBox="0 0 18 18" id="sprite--search" xmlns="http://www.w3.org/2000/svg"><path d="M16.639 16.5l-2.778-2.784m2.093-5.058a7.158 7.158 0 11-14.316 0 7.158 7.158 0 0114.316 0z" stroke="#667884" stroke-width="1.6" stroke-linecap="round"/></svg><svg fill="none" viewBox="0 0 12 19" id="sprite--service-arrwo" xmlns="http://www.w3.org/2000/svg"><path d="M10.5 1.5l-8 8 8 8" stroke="#AA804F" stroke-width="2.5"/></svg><svg fill="none" viewBox="0 0 13 11" id="sprite--tg" xmlns="http://www.w3.org/2000/svg"><path d="M.709 5.68l2.666.906 6.33-3.87c.092-.056.186.069.106.141L5.02 7.268l-.178 2.47a.204.204 0 00.347.16l1.476-1.45 2.697 2.041a.5.5 0 00.79-.29L12.03 1.67a.626.626 0 00-.834-.719l-10.5 4.02a.377.377 0 00.014.71z" fill="#fff"/></svg><svg fill="none" viewBox="0 0 17 17" id="sprite--wa" xmlns="http://www.w3.org/2000/svg"><path fill-rule="evenodd" clip-rule="evenodd" d="M14.523 2.47A8.43 8.43 0 008.536 0C3.87 0 .073 3.779.07 8.423c0 1.485.39 2.934 1.13 4.212L0 17l4.487-1.171a8.488 8.488 0 004.045 1.025h.004c4.665 0 8.462-3.78 8.464-8.424a8.352 8.352 0 00-2.477-5.96zM8.536 15.432h-.003c-1.263 0-2.5-.338-3.581-.976l-.257-.152L2.032 15l.711-2.584-.167-.265A6.96 6.96 0 011.5 8.424c.002-3.86 3.158-7.001 7.038-7.001 1.88 0 3.646.73 4.974 2.053a6.943 6.943 0 012.059 4.954c-.002 3.86-3.158 7.001-7.035 7.001zm3.859-5.244c-.212-.105-1.252-.614-1.446-.684-.193-.07-.335-.106-.475.105-.141.21-.547.685-.67.825-.124.14-.247.158-.458.053-.212-.106-.893-.328-1.701-1.045-.629-.558-1.053-1.247-1.177-1.458-.123-.21 0-.314.093-.43.229-.282.458-.58.529-.72.07-.14.035-.263-.018-.368-.053-.106-.476-1.142-.652-1.563-.172-.41-.346-.355-.476-.361a8.496 8.496 0 00-.405-.008.779.779 0 00-.564.264c-.194.21-.74.72-.74 1.756s.757 2.036.863 2.177c.106.14 1.492 2.266 3.613 3.178.505.217.899.347 1.206.444.507.16.967.137 1.332.083.406-.06 1.251-.51 1.428-1 .176-.493.176-.914.123-1.002-.053-.088-.194-.14-.405-.246z" fill="#fff"/></svg><svg fill="none" viewBox="0 0 34 34" id="sprite--zoom" xmlns="http://www.w3.org/2000/svg"><path d="M33 33l-5.926-5.94m4.466-10.79a15.27 15.27 0 11-30.54 0 15.27 15.27 0 0130.54 0z" stroke="#fff" stroke-width="1.6" stroke-linecap="round"/><path d="M15.675 15.638V10h1.65v5.638H23v1.647h-5.675V23h-1.65v-5.715H10v-1.647h5.675z" fill="#fff"/></svg></svg>