<svg width="111" height="13" fill="none" xmlns="http://www.w3.org/2000/svg"><path d="M4.092 12.542L.75.22h2.192L5.51 9.684 8.262.22h2.044l2.762 9.514 2.58-9.511L17.84.22l-3.344 12.32-2.541-.003-2.67-9.201-2.672 9.203-2.52.003zM19.352.227h2.087v12.307h-2.087V.227zM25.9 10.603h5.08v1.93h-7.125V.228H25.9v10.376zM37.4.241c1.713 0 3.138.596 4.26 1.775 1.138 1.178 1.713 2.64 1.713 4.371 0 1.718-.575 3.18-1.712 4.372-1.123 1.178-2.548 1.775-4.26 1.775h-4.909V.227H37.4v.014zm0 10.376c1.18 0 2.145-.397 2.864-1.192.749-.795 1.123-1.817 1.123-3.023 0-1.235-.374-2.229-1.123-3.024-.734-.795-1.698-1.192-2.864-1.192h-2.85v8.431h2.85zm16.985-1.599c0 1.008-.36 1.846-1.093 2.514-.735.667-1.598 1.008-2.663 1.008h-5.34V.227h4.951c1.022 0 1.885.34 2.59.98.72.653 1.066 1.463 1.066 2.428 0 1.08-.432 1.904-1.266 2.514 1.093.568 1.755 1.59 1.755 2.869zM47.347 2.13v3.238h2.907c.907 0 1.598-.71 1.598-1.619s-.69-1.619-1.598-1.619h-2.907zm3.296 8.507c.95 0 1.699-.753 1.699-1.718 0-.966-.749-1.719-1.699-1.719h-3.296v3.451h3.296v-.014zm7.729-.028h5.527v1.931h-7.57V.227h7.483v1.931h-5.44v3.196h4.994V7.27h-4.994v3.338zm14.48 1.931l-2.648-4.488h-2.418v4.488h-2.044V.227h4.994c1.123 0 2.073.383 2.836 1.165.777.752 1.18 1.69 1.18 2.797 0 1.563-.993 2.997-2.475 3.565l2.835 4.786h-2.26zM67.786 2.13v4.12h2.936c1.094 0 1.958-.91 1.958-2.06 0-1.136-.878-2.059-1.958-2.059h-2.936zm15.989 10.41l-2.634-4.49h-2.418v4.49H76.68V.22h4.994c1.123 0 2.072.384 2.835 1.166.777.753 1.18 1.69 1.18 2.799 0 1.563-.992 2.998-2.475 3.567l2.835 4.788h-2.274zM78.723 2.125v4.12h2.937c1.093 0 1.957-.91 1.957-2.06 0-1.137-.878-2.06-1.957-2.06h-2.937zm8.82-1.903h2.044V12.54h-2.044V.222zm6.509 10.387h5.527v1.931h-7.571V.227h7.484v1.931h-5.44v3.196h4.994V7.27h-4.994v3.338zm6.952-.872l1.77-1.022c.504 1.391 1.526 2.073 3.094 2.073 1.555 0 2.318-.653 2.318-1.618 0-.511-.216-.88-.619-1.136-.403-.27-1.152-.568-2.216-.88-1.195-.355-1.785-.582-2.62-1.121-.806-.568-1.209-1.377-1.209-2.484 0-1.093.388-1.945 1.18-2.584.778-.653 1.727-.965 2.836-.965 2 0 3.54 1.022 4.346 2.711l-1.727.98c-.518-1.136-1.396-1.718-2.619-1.718-1.195 0-1.958.596-1.958 1.533 0 .909.604 1.334 2.519 1.916.475.156.82.27 1.036.355.23.071.532.199.921.355.403.156.72.34.907.497.662.51 1.367 1.348 1.281 2.526 0 1.108-.403 2.002-1.223 2.655-.807.653-1.871.965-3.195.965-2.419-.014-4.175-1.15-4.822-3.038z" fill="#fff"/></svg>