<svg width="198" height="68" viewBox="0 0 198 68" fill="none" xmlns="http://www.w3.org/2000/svg">
<g clip-path="url(#clip0_179_162)">
<path fill-rule="evenodd" clip-rule="evenodd" d="M17 38.2423V40.894H12.159L16.0771 30.5999C16.4495 29.6281 16.2714 29.2987 17.1457 29.2987C17.68 29.2987 18.0524 30.9787 18.4571 32.0164C18.8619 33.0211 19.2181 33.9105 19.5743 34.9317C19.9305 35.9528 20.3029 36.8587 20.6914 37.8634C20.9019 38.3905 21.08 38.9011 21.2743 39.3787C21.4686 39.8564 21.6305 40.4658 21.841 40.894H18.101C18.101 38.7034 18.4086 37.814 17.421 37.814C17.0971 37.814 17 37.9128 17 38.2423ZM14.6524 23.4352C14.6524 19.6964 20.0438 19.8776 20.0438 23.1552C20.0438 27.4046 14.6524 26.6799 14.6524 23.4352ZM15.4781 17.8517C13.7619 17.9999 11.479 20.5858 11.479 23.0234C11.479 24.2917 11.5114 24.9011 12.0295 25.9552C12.24 26.3834 12.3048 26.5317 12.5962 26.9105C13.4381 28.0305 13.6486 27.207 12.1105 31.0611L9.64952 37.5176C9.29333 38.5223 8.69429 39.7905 8.43524 40.894H6.21714V39.774C6.21714 38.7528 3.86952 38.7528 3.86952 39.774V43.2658C3.86952 44.1552 6.21714 44.3693 6.21714 42.9858V42.014H7.88476L1.65143 58.4846C1.92667 58.6164 2.46095 58.8305 2.76857 58.8964C2.50952 60.0328 0 64.8423 0 66.0281C0 66.5058 0.0971429 66.5552 0.145714 66.9999C0.599048 66.687 1.21429 66.127 1.47333 65.5505L4.01524 59.4564C4.51714 59.5881 4.38762 59.687 4.97048 59.7364L11.5762 42.3928C11.7381 42.1128 11.6086 42.014 12.0295 42.014C18.0524 42.014 16.8705 41.7834 16.8705 42.8376V45.0775C16.8705 45.5058 16.741 45.1599 17.1781 45.5881L17.421 45.7858C17.7286 45.6211 17.8257 45.5387 18.101 45.3576V42.014C18.5219 42.1787 18.8943 42.0799 19.2019 42.0799C19.9143 42.0964 21.7762 42.2446 22.2619 42.014C22.5695 42.6728 22.8286 43.4799 23.1038 44.2211L29.0295 59.7364C29.6124 59.687 29.4829 59.5881 30.001 59.4564L32.4943 65.4517C32.7533 66.0775 33.32 66.6376 33.8705 66.9999C34.0324 64.9411 34.3238 66.2917 32.6562 62.3552C32.4133 61.7623 32.2352 61.2846 31.9762 60.6752C31.7495 60.1646 31.3448 59.3905 31.2314 58.8964C31.539 58.8305 32.0895 58.6164 32.3486 58.4846L26.941 44.2705C26.8276 43.974 26.6657 43.5787 26.5362 43.2658C26.4067 42.9199 26.2771 42.4752 26.1314 42.1458H29.3048C29.3048 43.0846 29.0943 43.9576 30.681 43.9576C32.0733 43.9576 31.6524 42.5905 31.6524 39.774C31.6524 39.1481 30.5838 38.8517 30.0171 39.0823C29.1914 39.4117 29.3048 39.9058 29.3048 41.0258C28.9 40.7952 26.1152 40.894 25.5648 40.894L20.8695 28.327C21.3714 27.5858 22.019 27.2728 22.521 26.367C23.8 24.1434 23.541 21.887 22.0352 19.8776C21.4524 19.087 20.3029 17.967 19.3476 17.7199C19.3476 16.3199 19.3476 14.9199 19.3476 13.5199C19.3638 12.6634 19.4771 12.2517 19.04 11.7411C18.2467 10.7693 16.7248 10.7364 15.9476 11.7576C15.4943 12.334 15.6076 12.7293 15.6238 13.6681C15.6238 15.2493 15.4781 16.3858 15.4781 17.8517Z" fill="white"/>
</g>
<path d="M45.3076 19.4727V14.1406H68.7686V19.4727H60.4834V44H53.5928V19.4727H45.3076ZM71.4756 44V14.1406H83.5342C86.7471 14.1406 89.208 15.0361 90.917 16.8271C92.6396 18.6182 93.501 21.0518 93.501 24.1279C93.501 27.1904 92.6533 29.624 90.958 31.4287C89.2627 33.2334 86.7607 34.1357 83.4521 34.1357H78.3047V44H71.4756ZM78.3047 29.3164H82.2422C83.8965 29.3164 85.0449 28.8447 85.6875 27.9014C86.3438 26.9443 86.6719 25.7139 86.6719 24.21C86.6719 22.7334 86.3438 21.5234 85.6875 20.5801C85.0449 19.6367 83.8965 19.165 82.2422 19.165H78.3047V29.3164ZM120.428 44H113.64L113.619 27.2656C113.619 26.6777 113.626 26.1104 113.64 25.5635C113.667 25.0166 113.688 24.5039 113.701 24.0254H113.558C113.394 24.4902 113.223 24.9482 113.045 25.3994C112.867 25.8506 112.635 26.3701 112.348 26.958L104.165 44H96.6592V14.1406H103.427V30.8545C103.427 31.4561 103.42 32.0371 103.406 32.5977C103.393 33.1582 103.379 33.6709 103.365 34.1357H103.529C103.68 33.6436 103.844 33.1719 104.021 32.7207C104.213 32.2695 104.452 31.7363 104.739 31.1211L112.901 14.1406H120.428V44ZM123.114 19.4727V14.1406H146.575V19.4727H138.29V44H131.399V19.4727H123.114ZM169.052 26.3018V31.2646H156.604V26.3018H169.052ZM165.176 31.4492V26.6299C165.176 23.7861 164.718 21.7354 163.802 20.4775C162.886 19.2197 161.56 18.5908 159.823 18.5908C158.101 18.5908 156.815 19.0215 155.968 19.8828C155.134 20.7441 154.717 21.9473 154.717 23.4922V25.0303H148.093V23.6768C148.093 20.5186 149.118 18.0576 151.169 16.2939C153.22 14.5303 156.118 13.6484 159.864 13.6484C163.706 13.6484 166.741 14.8242 168.97 17.1758C171.198 19.5273 172.312 23.1709 172.312 28.1064V29.8086C172.312 34.9355 171.13 38.668 168.765 41.0059C166.413 43.3301 163.357 44.4922 159.598 44.4922C155.947 44.4922 153.104 43.5898 151.066 41.7852C149.043 39.9668 148.031 37.5605 148.031 34.5664V33.1309H154.676V34.4023C154.676 36.0566 155.072 37.3418 155.865 38.2578C156.658 39.1602 157.875 39.6113 159.516 39.6113C161.389 39.6113 162.797 38.9346 163.74 37.5811C164.697 36.2275 165.176 34.1836 165.176 31.4492ZM174.179 19.4727V14.1406H197.64V19.4727H189.354V44H182.464V19.4727H174.179Z" fill="white"/>
<path d="M51.186 61.0864L52.5063 61.2705C52.2355 63.196 51.2897 64.1587 49.6689 64.1587C48.6152 64.1587 47.8302 63.7546 47.314 62.9463C46.7977 62.138 46.5396 61.0568 46.5396 59.7026C46.5396 58.2427 46.8125 57.1234 47.3584 56.3447C47.9043 55.5661 48.6914 55.1768 49.7197 55.1768C51.3109 55.1768 52.244 56.1628 52.519 58.1348L51.186 58.3315C51.0422 57.0197 50.5555 56.3638 49.7261 56.3638C48.6174 56.3638 48.063 57.5042 48.063 59.7852C48.063 61.9095 48.6174 62.9717 49.7261 62.9717C50.1704 62.9717 50.5005 62.8109 50.7163 62.4893C50.9364 62.1634 51.0929 61.6958 51.186 61.0864ZM52.9062 55.3354H58.1938V56.5542H56.2578V64H54.8232V56.5542H52.9062V55.3354ZM61.0693 61.4927L58.5493 55.3354H60.0156L61.6724 59.7471L63.1069 55.3354H64.4019L62.1929 61.8862C61.9178 62.703 61.6322 63.2594 61.3359 63.5557C61.0397 63.8519 60.5996 64 60.0156 64H59.4253V62.7622H60.0156C60.1341 62.7622 60.2801 62.722 60.4536 62.6416C60.6313 62.5612 60.8006 62.284 60.9614 61.8101L61.0693 61.4927ZM64.3892 62.7939L66.2744 55.3354H68.3818L70.0894 62.7939H70.5781V65.8472H69.5815L69.4165 64H65.0493L64.8906 65.8472H63.894V62.7939H64.3892ZM65.6777 62.7939H68.5977L67.3789 56.8018H67.0298L65.6777 62.7939ZM72.9648 63.2319V64H71.5366V55.3354H72.9648V60.1978C72.9648 60.257 72.95 60.6569 72.9204 61.3975C73.0939 60.8981 73.3436 60.3607 73.6694 59.7852L75.707 56.1797V55.3354H77.1353V64H75.707V59.5059C75.707 59.4635 75.7218 58.9663 75.7515 58.0142C75.5695 58.5093 75.3156 59.0488 74.9897 59.6328L72.9648 63.2319ZM83.9971 55.3354V64H82.5625V60.3818H81.2168L79.8647 64H78.3096L79.9536 60.0835C79.0692 59.6392 78.627 58.8838 78.627 57.8174C78.627 57.0176 78.8512 56.404 79.2998 55.9766C79.7484 55.5492 80.4445 55.3354 81.3882 55.3354H83.9971ZM82.5625 56.4463H81.4517C80.508 56.4463 80.0361 56.8991 80.0361 57.8047C80.0361 58.2406 80.1504 58.5939 80.3789 58.8647C80.6117 59.1356 80.9735 59.271 81.4644 59.271H82.5625V56.4463ZM88.9546 57.5635L87.7485 57.2842C88.1463 55.8792 89.0371 55.1768 90.4209 55.1768C91.2122 55.1768 91.8322 55.3862 92.2808 55.8052C92.7336 56.2199 92.96 56.7869 92.96 57.5063C92.96 58.4204 92.5093 59.0658 91.6079 59.4424C92.6701 59.7301 93.2012 60.439 93.2012 61.5688C93.2012 62.3729 92.9388 63.0055 92.4141 63.4668C91.8893 63.9281 91.2144 64.1587 90.3892 64.1587C89.6486 64.1587 89.0181 63.9767 88.4976 63.6128C87.9813 63.2446 87.6533 62.6522 87.5137 61.8354L88.7451 61.5435C88.9567 62.5295 89.4751 63.0225 90.3003 63.0225C90.6769 63.0225 91.0028 62.8997 91.2778 62.6543C91.5529 62.4046 91.6904 62.0111 91.6904 61.4736C91.6904 61.0505 91.5656 60.7056 91.3159 60.439C91.0662 60.1681 90.6071 60.0327 89.9385 60.0327H89.3926V58.9727H89.9385C90.3109 58.9727 90.5944 58.9409 90.7891 58.8774C90.988 58.814 91.1593 58.6764 91.3032 58.4648C91.4471 58.249 91.519 57.9718 91.519 57.6333C91.519 57.2186 91.4132 56.8885 91.2017 56.6431C90.9901 56.3976 90.696 56.2749 90.3193 56.2749C89.6211 56.2749 89.1662 56.7044 88.9546 57.5635ZM94.7373 55.3354H96.686C97.6297 55.3354 98.383 55.5026 98.9458 55.8369C99.5129 56.1712 99.9403 56.6685 100.228 57.3286C100.52 57.9888 100.666 58.7209 100.666 59.5249C100.666 60.3713 100.535 61.1266 100.272 61.791C100.014 62.4512 99.6165 62.9844 99.0791 63.3906C98.5459 63.7969 97.7842 64 96.7939 64H94.7373V55.3354ZM96.1719 56.4844V62.8511H96.7686C97.6022 62.8511 98.2074 62.5633 98.584 61.9878C98.9606 61.408 99.1489 60.6357 99.1489 59.6709C99.1489 57.5465 98.3555 56.4844 96.7686 56.4844H96.1719ZM101.72 60.2168H104.462V61.2769H101.72V60.2168ZM105.611 62.7939L107.496 55.3354H109.604L111.311 62.7939H111.8V65.8472H110.803L110.638 64H106.271L106.112 65.8472H105.116V62.7939H105.611ZM106.899 62.7939H109.819L108.601 56.8018H108.251L106.899 62.7939ZM114.187 63.2319V64H112.758V55.3354H114.187V60.1978C114.187 60.257 114.172 60.6569 114.142 61.3975C114.316 60.8981 114.565 60.3607 114.891 59.7852L116.929 56.1797V55.3354H118.357V64H116.929V59.5059C116.929 59.4635 116.944 58.9663 116.973 58.0142C116.791 58.5093 116.537 59.0488 116.211 59.6328L114.187 63.2319ZM119.5 61.5625L120.794 61.3149C120.976 62.4237 121.512 62.978 122.4 62.978C122.832 62.978 123.158 62.8341 123.378 62.5464C123.602 62.2544 123.714 61.8989 123.714 61.48C123.714 60.9933 123.602 60.6294 123.378 60.3882C123.158 60.147 122.883 60.0264 122.553 60.0264H121.861V58.998H122.553C122.79 58.998 123.022 58.8901 123.251 58.6743C123.484 58.4543 123.6 58.1178 123.6 57.665C123.6 57.263 123.484 56.9456 123.251 56.7129C123.018 56.4759 122.714 56.3574 122.337 56.3574C121.562 56.3574 121.095 56.8335 120.934 57.7856L119.696 57.5889C119.942 55.9808 120.841 55.1768 122.394 55.1768C123.236 55.1768 123.882 55.3968 124.33 55.8369C124.783 56.2728 125.009 56.8123 125.009 57.4556C125.009 58.3823 124.548 59.0298 123.625 59.3979C124.688 59.7069 125.219 60.3882 125.219 61.4419C125.219 62.2121 124.98 62.8574 124.501 63.3779C124.028 63.8984 123.327 64.1587 122.4 64.1587C120.703 64.1587 119.736 63.2933 119.5 61.5625ZM128.196 55.3354H129.802L132.125 64H130.671L130.125 61.8291H127.593L127.06 64H125.688L128.196 55.3354ZM129.84 60.6992L128.856 56.7319L127.878 60.6992H129.84ZM134.423 63.2319V64H132.995V55.3354H134.423V60.1978C134.423 60.257 134.408 60.6569 134.378 61.3975C134.552 60.8981 134.802 60.3607 135.127 59.7852L137.165 56.1797V55.3354H138.593V64H137.165V59.5059C137.165 59.4635 137.18 58.9663 137.209 58.0142C137.028 58.5093 136.774 59.0488 136.448 59.6328L134.423 63.2319ZM133.89 52.9678H134.778C134.91 53.4417 135.263 53.6787 135.838 53.6787C136.405 53.6787 136.755 53.4417 136.886 52.9678H137.781C137.565 54.0003 136.917 54.5166 135.838 54.5166C134.755 54.5166 134.105 54.0003 133.89 52.9678ZM140.256 55.3354H141.691V58.9282H144.243V55.3354H145.677V64H144.243V60.1406H141.691V64H140.256V55.3354ZM148.965 55.3354H150.571L152.895 64H151.441L150.895 61.8291H148.362L147.829 64H146.458L148.965 55.3354ZM150.609 60.6992L149.625 56.7319L148.648 60.6992H150.609Z" fill="#F5F5F5"/>
<defs>
<clipPath id="clip0_179_162">
<rect width="34" height="56" fill="white" transform="translate(0 11)"/>
</clipPath>
</defs>
</svg>
