<svg width="92" height="56" fill="none" xmlns="http://www.w3.org/2000/svg"><path d="M57.152 52.569v-6.371H54.8V56h1.97l5.662-6.416V56h2.352v-9.802h-2.078l-5.553 6.37zm18.207-6.371l-5.552 6.37v-6.37h-2.353V56h1.978l5.654-6.416V56h2.352v-9.802H75.36zM49.775 50.01h-5.152v-3.813H42.27V56h2.353v-3.832h5.152V56h2.352v-9.802h-2.352v3.813zm-28.62-3.813L15.518 56H18.3l3.711-6.471L25.75 56h2.909l-5.636-9.802h-1.869zm10.813 6.316v-6.316h-2.352V56h1.979l5.662-6.362V56h2.352v-9.802h-1.978l-5.663 6.316zM18.076 40.747h5.317l1.221-2.157h-6.537v2.157zm0-5.989v2.157h7.505l1.25-2.157h-8.755zm13.833-3.813l-5.635 9.802h2.772l3.711-6.471 3.739 6.471h2.917l-5.634-9.802h-1.87zM14.978 38.59l-5.635-9.811H7.42l-5.636 9.81H.371v5.034h2.243v-2.877h11.534v2.877h2.243V38.59h-1.413zm-10.385 0l3.71-6.48 3.739 6.48h-7.45zm87.284-7.645h-10.95v2.157h9.691l1.259-2.157zm-62.859 0H18.077v2.157h9.692l1.25-2.157zm42.49 3.514h-3.575v-3.522h-2.352v9.81h5.908c1.596 0 3.255-.882 3.255-3.194-.009-3.04-2.142-3.094-3.237-3.094zm-.137 4.214h-3.447v-2.184h3.447c.4 0 1.012.109 1.012 1.092 0 .91-.502 1.092-1.012 1.092zm6.893-7.728H75.94v9.811h2.325v-9.811zm-32.923-.237c-3.931 0-5.79 2.403-5.79 5.088 0 2.803 1.813 5.087 5.79 5.087 1.731 0 5.743-.8 5.743-5.087 0-2.803-1.796-5.088-5.744-5.088zm-.028 8.018c-2.27 0-3.228-1.301-3.228-2.903 0-1.757 1.094-2.931 3.228-2.931 2.407 0 3.227 1.174 3.227 2.931 0 2.102-1.577 2.903-3.227 2.903zm35.613 2.021h5.316l1.23-2.157h-6.546v2.157zm0-5.989v2.157h7.504l1.258-2.157h-8.762zm-19.575.21c.62-.264 1.148-.692 1.148-1.757 0-2.03-1.705-2.266-2.908-2.266h-6.355v9.811H59.7c2.963 0 3.574-1.629 3.574-3.121.01-1.684-.948-2.376-1.923-2.667zm-5.79-1.948h3.765c.565 0 .802.292.802.856 0 .582-.373.882-.802.882h-3.765V33.02zm4.14 5.652h-4.14V36.57h4.14c.664 0 1.148.163 1.148 1.037 0 .692-.292 1.065-1.149 1.065z" fill="#000"/><path d="M34.604 19.658l12.555 2.41.976-1.683-11.16-4.822-2.37 4.095zm5.817-10.047l9.766 7.235.975-1.684-8.37-9.647-2.37 4.096h-.001zm-2.918 5.042l11.16 4.824.995-1.721-9.766-7.235-2.389 4.132zM45.983 0l-2.635 4.56 8.37 9.648 1.241-2.139L45.983 0zM31.422 25.164h13.95l1.24-2.139-12.555-2.41-2.635 4.55zm22.138-5.633l3.264 5.633h3.71L53.56 13.106l-6.975 12.058h3.71l3.265-5.633z" fill="#FCAF17"/></svg>