<svg width="52" height="50" fill="none" xmlns="http://www.w3.org/2000/svg"><g clip-path="url(#clip0_194_1111)"><path d="M47.359 0H4.69C2.446 0 .625 1.785.625 3.987v41.83c0 2.202 1.82 3.987 4.066 3.987H47.36c2.245 0 4.066-1.785 4.066-3.987V3.987C51.426 1.785 49.606 0 47.36 0z" fill="#0C54A0"/><path d="M47.885 24.902c0 11.837-9.788 21.432-21.86 21.432-12.074 0-21.86-9.595-21.86-21.432 0-11.836 9.786-21.431 21.86-21.431 12.072 0 21.86 9.595 21.86 21.431z" fill="#FFF01E"/><path d="M24.322 21.105h-4.538l-5.29 5.308V15.637h-4.06v18.47h4.06V28.28l5.09 5.825h5.139l-6.293-7.128 5.892-5.873z" fill="#0C54A0"/><path d="M27.43 19.9a2.17 2.17 0 01-1.579-.639 2.086 2.086 0 01-.652-1.548c0-.606.217-1.122.652-1.549.434-.425.96-.638 1.58-.638.617 0 1.144.213 1.579.639.434.426.651.942.651 1.548 0 .606-.217 1.122-.651 1.548a2.172 2.172 0 01-1.58.639z" fill="#F52D0E"/><path d="M29.46 34.106h-4.062V21.105h4.062v13.001zm12.158-9.684v-3.317h-3.71v-5.468h-4.062v5.468h-2.682v3.317h2.682v5.727c0 1.36.405 2.389 1.216 3.085.81.696 2.01 1.044 3.598 1.044.384 0 .86-.037 1.429-.11a8.518 8.518 0 001.404-.283v-3.22a6.685 6.685 0 01-.928.21 6.312 6.312 0 01-.902.06c-.652 0-1.108-.118-1.367-.356-.26-.237-.388-.643-.388-1.216v-4.94h3.71z" fill="#0C54A0"/></g><defs><clipPath id="clip0_194_1111"><path fill="#fff" transform="translate(.625)" d="M0 0h51v50H0z"/></clipPath></defs></svg>