<svg width="80" height="20" fill="none" xmlns="http://www.w3.org/2000/svg"><g clip-path="url(#clip0_194_1091)" fill-rule="evenodd" clip-rule="evenodd"><path d="M79.875.704S78.405.53 76.67.53c-1.69 0-3.115.175-3.115.175v5.49h6.32V.704zm0 12.956h-6.32v5.578s1.78.176 3.204.176c1.424 0 3.116-.22 3.116-.22v-5.533z" fill="#E4003E"/><path d="M69.773.704h-7.789l-5.43 6.72h-2.537V.704h-6.72v18.579h6.72v-6.984h2.448l5.475 6.983h8.323l-8.145-9.881L69.773.704zm-47.668 0H.875v18.579h6.81V5.974h7.61v13.307h6.81V.704zm3.292 4.919L24.418.704S30.782.221 34.743.221c3.962 0 8.724.483 8.724.483s1.469 3.778 1.469 9.092-1.514 9.486-1.514 9.486-4.54.484-8.723.484c-4.184 0-10.281-.483-10.281-.483l.98-4.92s4.272.308 7.921.308c3.65 0 5.074-.307 5.074-.307s.178-.923.267-1.977h-8.723V7.644h8.768c-.09-1.23-.267-1.977-.267-1.977s-2.982-.307-5.52-.307c-2.58-.044-7.52.263-7.52.263z" fill="#242265"/></g><defs><clipPath id="clip0_194_1091"><path fill="#fff" transform="translate(.875)" d="M0 0h79v20H0z"/></clipPath></defs></svg>